<svg xmlns="http://www.w3.org/2000/svg" xmlns:xlink="http://www.w3.org/1999/xlink"><symbol id="icon-arrow" viewBox="0 0 20 9">
<path d="M15.176 8.77059C14.9069 8.47939 14.9069 8.01776 15.176 7.7266L17.5442 5.25069L0.719178 5.25069C0.32198 5.25069 0 4.91427 0 4.49926C0 4.08426 0.32198 3.74784 0.719178 3.74784L17.5443 3.74784L15.176 1.27342C14.9001 0.974911 14.908 0.499233 15.1937 0.210938C15.4724 -0.0703127 15.9142 -0.0703127 16.1929 0.210938L19.7887 3.96798C20.0699 4.26107 20.0705 4.73684 19.79 5.03064L19.7887 5.032L16.1929 8.78904C15.9072 9.07738 15.452 9.0691 15.176 8.77059Z" fill="white"/>
</symbol><symbol id="icon-attach-file" viewBox="0 0 12 24">
<g opacity="0.8">
<path d="M10.3636 5.45455V18C10.3636 20.4109 8.41091 22.3636 6 22.3636C3.58909 22.3636 1.63636 20.4109 1.63636 18V4.36364C1.63636 2.85818 2.85818 1.63636 4.36364 1.63636C5.86909 1.63636 7.09091 2.85818 7.09091 4.36364V15.8182C7.09091 16.4182 6.60545 16.9091 6 16.9091C5.39455 16.9091 4.90909 16.4182 4.90909 15.8182V5.45455H3.27273V15.8182C3.27273 17.3236 4.49455 18.5455 6 18.5455C7.50545 18.5455 8.72727 17.3236 8.72727 15.8182V4.36364C8.72727 1.95273 6.77455 0 4.36364 0C1.95273 0 0 1.95273 0 4.36364V18C0 21.3164 2.68909 24 6 24C9.31091 24 12 21.3164 12 18V5.45455H10.3636Z" fill="#383838"/>
</g>
</symbol><symbol id="icon-bulldozer" viewBox="0 0 52 34">
<g opacity="0.95">
<path opacity="0.95" d="M9.97464 24.6492C8.89044 24.6492 8.02308 25.5077 8.02308 26.55C8.02308 27.6231 8.89044 28.4815 9.97464 28.4815C11.0279 28.4815 11.9262 27.6231 11.9262 26.55C11.9262 25.5077 11.0279 24.6492 9.97464 24.6492ZM31.194 24.6492C30.1098 24.6492 29.2424 25.5077 29.2424 26.55C29.2424 27.6231 30.1098 28.4815 31.194 28.4815C32.2782 28.4815 33.1455 27.6231 33.1455 26.55C33.1455 25.5077 32.2782 24.6492 31.194 24.6492ZM37.978 26.642C37.978 24.0054 35.8096 21.89 33.1765 21.89H7.46549C4.80146 21.89 2.66403 24.0054 2.66403 26.642C2.66403 29.248 4.80146 31.394 7.46549 31.394H33.1765C35.8096 31.394 37.978 29.248 37.978 26.642ZM11.7094 12.5086C11.9572 12.6925 12.205 12.8458 12.4218 13.0604H25.1225L21.1574 2.11542H11.7094V12.5086ZM40.642 26.642C40.642 30.6889 37.2965 34 33.1765 34H7.46549C3.34553 34 0 30.6889 0 26.642C0 24.4346 0.960292 22.4725 2.50915 21.1235V17.4752C2.50915 14.2254 5.17318 11.5582 8.48774 11.5582C8.85946 11.5582 9.23119 11.6195 9.57194 11.6808V1.07304C9.57194 0.490532 10.0676 0 10.6561 0H21.9628C22.4584 0 22.8921 0.337241 22.985 0.797114L27.3838 13.3977H28.0033C28.0033 13.5816 27.9724 13.7656 27.9724 13.9495V17.2606L28.0033 19.2534H33.1765C37.2965 19.2534 40.642 22.5645 40.642 26.642ZM51.9797 16.6168C51.9487 16.7394 51.8248 16.8314 51.7009 16.9234L45.5054 19.9279L42.036 21.3995C41.974 21.4301 41.8811 21.4301 41.8191 21.4301C41.6333 21.4301 41.4784 21.3381 41.3855 21.1849C41.2306 20.9702 41.2616 20.6943 41.4784 20.5104L42.8104 19.3147L44.9169 17.2913L41.4474 11.4049C41.3545 11.2209 41.3545 11.0063 41.4474 10.8224C41.5713 10.6691 41.7882 10.5771 41.974 10.6078L44.2973 10.9143L41.4474 6.07033L38.3497 6.95942L33.3004 17.8431H28.0033V15.2372H31.5967L36.4291 4.75203L42.7175 3.00451L47.6429 11.4049L49.3776 11.6195C49.5325 11.6501 49.6873 11.7728 49.7803 11.9261L51.9487 16.1876C52.0106 16.3102 52.0106 16.4635 51.9797 16.6168Z" fill="white"/>
</g>
</symbol><symbol id="icon-bus" viewBox="0 0 56 33">
<g opacity="0.9">
<path d="M52.4999 2.22541e-07H3.50005C1.56977 2.22541e-07 0 1.5865 0 3.53552V23.5706C0 25.5214 1.56967 27.1062 3.50005 27.1062H4.66645C4.66645 30.3552 7.28372 33 10.5001 33C13.7164 33 16.3337 30.3552 16.3337 27.1062H37.3344C37.3344 30.3552 39.9492 33 43.1655 33C46.3818 33 49 30.3552 49 27.1062H52.5001C54.4311 27.1062 56 25.5214 56 23.5706V15.3213V5.8929V3.53552C55.9999 1.5865 54.431 2.22541e-07 52.4999 2.22541e-07ZM42 7.07114H53.6654V14.1423H42V7.07114ZM3.50005 24.748C2.85659 24.748 2.33366 24.2197 2.33366 23.5706H5.83623C5.56618 23.9331 5.33802 24.3284 5.15514 24.748H3.50005ZM10.5001 30.6418C8.56977 30.6418 7 29.057 7 27.1062C7 25.1554 8.56977 23.5706 10.5001 23.5706C12.4303 23.5706 14.0001 25.1554 14.0001 27.1062C14.0001 29.057 12.4303 30.6418 10.5001 30.6418ZM15.8449 24.748C14.9425 22.6694 12.8874 21.2124 10.5001 21.2124H2.33366V3.53552C2.33366 2.8864 2.85659 2.35727 3.50005 2.35727H52.4999C53.1425 2.35727 53.6654 2.8864 53.6654 3.53552V4.71465H40.8344H34.9998H33.8344H32.6654H28H25.6664H21H19.8336H18.6663H5.83372C5.18938 4.71465 4.66645 5.24201 4.66645 5.8929V15.3213C4.66645 15.9722 5.18938 16.4996 5.83372 16.4996H18.6664V24.748H15.8449ZM34.9999 14.1423V7.07114H39.6655V14.1423H34.9999ZM7 14.1423V7.07114H11.6664V14.1423H7ZM14 7.07114H18.6663V14.1423H14V7.07114ZM21 7.07114H25.6664V14.1423H21V7.07114ZM32.6655 14.1423H28V7.07114H32.6655V14.1423ZM21 16.4996H25.6664V24.748H21V16.4996ZM28 16.4996H32.6655V24.748H28V16.4996ZM43.1654 30.6418C41.2378 30.6418 39.6655 29.057 39.6655 27.1062C39.6655 25.1554 41.2378 23.5706 43.1654 23.5706C45.0965 23.5706 46.6654 25.1554 46.6654 27.1062C46.6654 29.057 45.0966 30.6418 43.1654 30.6418ZM52.4999 24.748H48.5111C47.6087 22.6694 45.5545 21.2124 43.1654 21.2124C40.7797 21.2124 38.7238 22.6696 37.8215 24.748H34.9999V16.4996H40.8345H53.6655V18.8578H51.3344C50.6884 18.8578 50.1654 19.3844 50.1654 20.0351C50.1654 20.686 50.6883 21.2124 51.3344 21.2124H53.6655V23.5706C53.6654 24.2197 53.1425 24.748 52.4999 24.748Z" fill="white"/>
<path d="M9.67523 26.2743C9.21902 26.7335 9.21902 27.4793 9.67523 27.9385C10.1307 28.4012 10.869 28.4012 11.3244 27.9385C11.7807 27.4793 11.7807 26.7335 11.3244 26.2743C10.869 25.8116 10.1307 25.8116 9.67523 26.2743Z" fill="white"/>
<path d="M42.3413 26.2743C41.8869 26.7335 41.8869 27.4793 42.3413 27.9385C42.7959 28.4012 43.5359 28.4012 43.9923 27.9385C44.4468 27.4793 44.4468 26.7335 43.9923 26.2743C43.5359 25.8116 42.7959 25.8116 42.3413 26.2743Z" fill="white"/>
</g>
</symbol><symbol id="icon-car" viewBox="0 0 56 28">
<g opacity="0.9">
<path d="M12.833 20.703C12.1888 20.703 11.6659 21.2481 11.6659 21.918C11.6659 22.5914 12.1888 23.1367 12.833 23.1367C13.4774 23.1367 13.9994 22.5915 13.9994 21.918C13.9994 21.2481 13.4774 20.703 12.833 20.703Z" fill="#F7F7F7"/>
<path d="M53.8722 10.5103C51.8506 8.57912 48.347 8.5204 41.489 8.51857C40.9472 7.66341 39.8022 6.08671 37.9069 4.52245C35.4083 2.45945 31.054 -5.42829e-07 24.4999 -5.42829e-07C17.9468 -5.42829e-07 13.5864 2.45774 11.0827 4.51891C9.1823 6.08318 8.03308 7.65987 7.48871 8.51412H6.11811C6.02667 8.49007 5.63958 8.49007 5.54902 8.51412H3.49995C3.19063 8.51412 2.89411 8.6424 2.67536 8.87044L0.341803 11.3022C0.123049 11.5302 0 11.8403 0 12.1627V20.7025C0 21.041 0.135846 21.3652 0.374288 21.5969C0.663918 21.8749 3.27781 24.3263 5.81141 24.3263H7.47679C8.37237 26.4857 10.4359 28 12.8336 28C15.2305 28 17.2941 26.4857 18.1905 24.3263L37.8096 24.3228C38.7052 26.4857 40.7696 28 43.1656 28C45.565 28 47.6277 26.4857 48.5232 24.3228H54.8345C55.4771 24.3228 56 23.7812 56 23.1078C55.9999 16.0741 55.9999 12.5431 53.8722 10.5103ZM36.3671 6.35478C37.2934 7.10835 38.0145 7.86557 38.5528 8.51412H23.3335V2.46219C23.7172 2.44258 24.1059 2.43277 24.4999 2.43277C29.1757 2.43277 33.1679 3.75189 36.3671 6.35478ZM12.6199 6.35387C14.9946 4.42713 17.8033 3.20413 20.9999 2.69901V8.51401H10.4265C10.9666 7.86557 11.6912 7.10755 12.6199 6.35387ZM3.98362 10.9459H4.66635V12.1627H2.81635L3.98362 10.9459ZM12.8335 25.5662C10.9032 25.5662 9.33357 23.9307 9.33357 21.9175C9.33357 19.908 10.9032 18.2689 12.8335 18.2689C14.763 18.2689 16.3336 19.908 16.3336 21.9175C16.3336 23.9308 14.763 25.5662 12.8335 25.5662ZM43.1654 25.5662C41.2377 25.5662 39.6654 23.9307 39.6654 21.9175C39.6654 19.908 41.2377 18.2689 43.1654 18.2689C45.0964 18.2689 46.6653 19.908 46.6653 21.9175C46.6653 23.9308 45.0965 25.5662 43.1654 25.5662ZM48.9999 21.8927C48.9862 18.5504 46.3748 15.839 43.1654 15.839C39.9593 15.839 37.348 18.5504 37.3343 21.8927H18.6664C18.6518 18.5504 16.0413 15.839 12.8336 15.839C9.62593 15.839 7.01456 18.5504 7.00089 21.8927H5.83362C5.83023 21.8927 5.8276 21.8927 5.82421 21.8927H5.81054C4.66208 21.8927 3.13168 20.8094 2.33356 20.1432V14.5946H5.83362C6.47796 14.5946 7.00001 14.0503 7.00001 13.3786V10.9459H8.14081H40.7389C40.7696 10.9494 40.8038 10.9512 40.8363 10.9512C47.0791 10.9512 50.6202 10.9512 52.1344 12.1627H50.1519C49.506 12.1627 48.9847 12.7069 48.9847 13.3786C48.9847 14.0503 49.506 14.5946 50.1519 14.5946H53.3135C53.6279 16.2416 53.6622 18.6324 53.6656 21.8927H48.9999Z" fill="#F7F7F7"/>
<path d="M43.1647 20.703C42.5221 20.703 41.9993 21.2481 41.9993 21.918C41.9993 22.5914 42.5221 23.1367 43.1647 23.1367C43.8107 23.1367 44.3337 22.5915 44.3337 21.918C44.3337 21.2481 43.8108 20.703 43.1647 20.703Z" fill="#F7F7F7"/>
<path d="M26.8335 13.3783H24.4998C23.8555 13.3783 23.3334 13.9225 23.3334 14.5942C23.3334 15.2659 23.8555 15.8111 24.4998 15.8111H26.8334C27.4777 15.8111 27.9998 15.2659 27.9998 14.5942C27.9998 13.9225 27.4778 13.3783 26.8335 13.3783Z" fill="#F7F7F7"/>
</g>
</symbol><symbol id="icon-download" viewBox="0 0 14 14">
<path d="M0.538472 9.64258C0.835867 9.64258 1.07694 9.88242 1.07694 10.1783V12.3926C1.07694 12.6885 1.31802 12.9283 1.61541 12.9283H12.3846C12.682 12.9283 12.9231 12.6885 12.9231 12.3926V10.1783C12.9231 9.88242 13.1641 9.64258 13.4615 9.64258C13.7589 9.64258 14 9.88242 14 10.1783V12.3926C14 13.2802 13.2768 13.9997 12.3846 13.9997H1.61538C0.72323 13.9997 9.53674e-07 13.2802 9.53674e-07 12.3926V10.1783C9.53674e-07 9.88242 0.241077 9.64258 0.538472 9.64258Z" fill="white"/>
<path d="M3.93912 7.2641C4.14779 7.06362 4.4786 7.06362 4.68724 7.2641L6.46148 9.02819V0.535724C6.46148 0.239847 6.70256 0 6.99995 0C7.29735 0 7.53842 0.239847 7.53842 0.535724V9.02822L9.31159 7.2641C9.5255 7.05857 9.86637 7.06447 10.073 7.27726C10.2745 7.48487 10.2745 7.81399 10.073 8.0216L7.38067 10.7002C7.17064 10.9096 6.8297 10.9101 6.61917 10.7011L6.61819 10.7002L3.9259 8.0216C3.71927 7.80878 3.72521 7.46964 3.93912 7.2641Z" fill="white"/>
</symbol><symbol id="icon-operator" viewBox="0 0 40 48">
<path d="M19.28 0.0129651C8.44 0.402965 0 9.64296 0 20.493V27.573C0 28.2201 0.257071 28.8407 0.714659 29.2983C1.17225 29.7559 1.79287 30.013 2.44 30.013H4.56C5.20713 30.013 5.82775 29.7559 6.28534 29.2983C6.74293 28.8407 7 28.2201 7 27.573V20.453C7 19.8058 6.74293 19.1852 6.28534 18.7276C5.82775 18.27 5.20713 18.013 4.56 18.013H4.14C4.63591 14.0621 6.5872 10.4381 9.61256 7.84913C12.6379 5.26019 16.5199 3.89237 20.5 4.01297C24.2843 4.19084 27.8868 5.68859 30.6818 8.24609C33.4768 10.8036 35.2877 14.2593 35.8 18.013H35.44C34.7929 18.013 34.1722 18.27 33.7147 18.7276C33.2571 19.1852 33 19.8058 33 20.453V27.573C32.997 28.2039 33.2394 28.8112 33.6761 29.2666C34.1128 29.7219 34.7095 29.9896 35.34 30.013C34.9062 33.2246 33.4767 36.2195 31.2525 38.5765C29.0282 40.9334 26.1211 42.534 22.94 43.153C22.6024 42.4813 22.048 41.9431 21.3666 41.6255C20.6851 41.308 19.9165 41.2296 19.185 41.4031C18.4535 41.5766 17.8019 41.9918 17.3357 42.5816C16.8694 43.1714 16.6158 43.9012 16.6158 44.653C16.6158 45.4048 16.8694 46.1346 17.3357 46.7243C17.8019 47.3141 18.4535 47.7293 19.185 47.9028C19.9165 48.0763 20.6851 47.9979 21.3666 47.6804C22.048 47.3628 22.6024 46.8247 22.94 46.153C26.9476 45.5109 30.6326 43.568 33.4266 40.6241C36.2205 37.6801 37.9682 33.8986 38.4 29.863C38.8683 29.6898 39.2724 29.3776 39.5584 28.9684C39.8443 28.5591 39.9984 28.0722 40 27.573V20.013C40.0017 17.3248 39.4616 14.6639 38.4117 12.1893C37.3619 9.71459 35.824 7.47696 33.8899 5.61006C31.9558 3.74316 29.6652 2.28531 27.155 1.32364C24.6447 0.361961 21.9664 -0.0838084 19.28 0.0129651Z" fill="white"/>
</symbol><symbol id="icon-planet" viewBox="0 0 48 48">
<path d="M48 22.5C47.6327 16.6578 45.1428 11.1512 40.999 7.01656C36.8551 2.88193 31.343 0.404325 25.5 0.05V0H22.5V0.05C16.6658 0.416059 11.1658 2.89884 7.03233 7.03233C2.89884 11.1658 0.416059 16.6658 0.05 22.5H0V25.5H0.05C0.404325 31.343 2.88193 36.8551 7.01656 40.999C11.1512 45.1428 16.6578 47.6327 22.5 48H25.5C31.3511 47.6444 36.8698 45.1597 41.0148 41.0148C45.1597 36.8698 47.6444 31.3511 48 25.5V22.5ZM44 22.5H36.6C36.38 15.82 34.73 9.88 32.22 5.79C35.4901 7.26921 38.3019 9.60115 40.3605 12.5412C42.4191 15.4813 43.6486 18.9212 43.92 22.5H44ZM27.07 43.74C26.55 43.82 26.07 43.88 25.5 43.92V25.5H33.59C33.29 34.37 30.38 41.08 27.07 43.74ZM14.41 25.5H22.5V43.92C21.97 43.92 21.45 43.82 20.93 43.74C17.62 41.08 14.71 34.37 14.41 25.5ZM20.93 4.26C21.45 4.18 21.93 4.12 22.5 4.08V22.5H14.41C14.71 13.63 17.62 6.92 20.93 4.26ZM25.5 22.5V4.08C26.03 4.08 26.55 4.18 27.07 4.26C30.38 6.92 33.29 13.63 33.59 22.5H25.5ZM15.78 5.79C13.27 9.88 11.62 15.79 11.4 22.5H4.08C4.35142 18.9212 5.58089 15.4813 7.63947 12.5412C9.69805 9.60115 12.5099 7.26921 15.78 5.79ZM4.08 25.5H11.4C11.62 32.18 13.27 38.12 15.78 42.21C12.5099 40.7308 9.69805 38.3989 7.63947 35.4588C5.58089 32.5187 4.35142 29.0788 4.08 25.5ZM32.22 42.21C34.73 38.12 36.38 32.21 36.6 25.5H43.92C43.6486 29.0788 42.4191 32.5187 40.3605 35.4588C38.3019 38.3989 35.4901 40.7308 32.22 42.21Z" fill="white"/>
</symbol><symbol id="icon-pointer" viewBox="0 0 48 48">
<path d="M23.9601 18.6788C25.0232 18.6768 26.063 18.9904 26.9478 19.5798C27.8326 20.1692 28.5226 21.008 28.9304 21.9898C29.3381 22.9716 29.4453 24.0524 29.2384 25.0952C29.0315 26.138 28.5197 27.096 27.768 27.8477C27.0162 28.5995 26.0583 29.1112 25.0155 29.3181C23.9727 29.5251 22.8919 29.4179 21.91 29.0101C20.9282 28.6023 20.0895 27.9124 19.5001 27.0276C18.9106 26.1428 18.5971 25.103 18.599 24.0398C18.6017 22.6188 19.1673 21.2567 20.1722 20.2519C21.177 19.2471 22.5391 18.6814 23.9601 18.6788ZM23.9601 14.6854C22.1076 14.6854 20.2967 15.2349 18.7565 16.2643C17.2163 17.2937 16.016 18.7568 15.3076 20.4685C14.5991 22.1802 14.4142 24.0636 14.7764 25.8804C15.1385 27.6972 16.0314 29.3657 17.342 30.675C18.6526 31.9842 20.3221 32.8753 22.1393 33.2355C23.9565 33.5957 25.8397 33.4088 27.5506 32.6985C29.2616 31.9882 30.7234 30.7864 31.7512 29.2451C32.7789 27.7039 33.3265 25.8924 33.3245 24.0398C33.3245 22.8106 33.0822 21.5933 32.6115 20.4578C32.1407 19.3222 31.4508 18.2905 30.5811 17.4217C29.7114 16.553 28.679 15.8641 27.5429 15.3946C26.4069 14.9251 25.1894 14.6841 23.9601 14.6854Z" fill="white"/>
<path d="M46.0033 21.9634H43.1082C42.6304 17.5902 40.6668 13.5133 37.5453 10.4136C34.4237 7.3138 30.3331 5.37882 25.9567 4.93178V1.99667C25.9567 1.46712 25.7464 0.95926 25.3719 0.584812C24.9975 0.210363 24.4896 0 23.9601 0C23.4305 0 22.9227 0.210363 22.5482 0.584812C22.1738 0.95926 21.9634 1.46712 21.9634 1.99667V4.93178C17.6013 5.39599 13.5294 7.33855 10.4239 10.4368C7.31836 13.535 5.36627 17.6024 4.89185 21.9634H1.99667C1.46712 21.9634 0.95926 22.1738 0.584812 22.5482C0.210363 22.9227 0 23.4305 0 23.9601C0 24.4896 0.210363 24.9975 0.584812 25.3719C0.95926 25.7464 1.46712 25.9567 1.99667 25.9567H4.88186C5.32015 30.3497 7.25755 34.4578 10.3683 37.5904C13.4791 40.723 17.5736 42.6891 21.9634 43.1581V46.0033C21.9634 46.5329 22.1738 47.0407 22.5482 47.4152C22.9227 47.7896 23.4305 48 23.9601 48C24.4896 48 24.9975 47.7896 25.3719 47.4152C25.7464 47.0407 25.9567 46.5329 25.9567 46.0033V43.1581C30.3616 42.7082 34.4757 40.7503 37.6029 37.6158C40.7302 34.4813 42.6785 30.3626 43.1181 25.9567H46.0033C46.5329 25.9567 47.0407 25.7464 47.4152 25.3719C47.7896 24.9975 48 24.4896 48 23.9601C48 23.4305 47.7896 22.9227 47.4152 22.5482C47.0407 22.1738 46.5329 21.9634 46.0033 21.9634ZM23.9601 39.2646C20.9506 39.2567 18.011 38.3571 15.5126 36.6794C13.0142 35.0017 11.069 32.6212 9.92285 29.8385C8.77666 27.0559 8.48085 23.996 9.0728 21.0454C9.66474 18.0947 11.1179 15.3857 13.2487 13.2605C15.3795 11.1352 18.0923 9.68921 21.0445 9.10499C23.9967 8.52077 27.0558 8.82459 29.8354 9.97807C32.615 11.1316 34.9904 13.0829 36.6616 15.5857C38.3327 18.0886 39.2246 21.0305 39.2246 24.0399C39.222 26.0419 38.8251 28.0237 38.0566 29.8723C37.288 31.7208 36.1629 33.3999 34.7455 34.8136C33.328 36.2274 31.646 37.3481 29.7954 38.1118C27.9449 38.8755 25.962 39.2672 23.9601 39.2646Z" fill="white"/>
</symbol><symbol id="icon-tow-truck" viewBox="0 0 60 40">
<g opacity="0.9">
<path d="M60 20.5908L56.3745 18.2185L51.2475 9.68935L38.6644 9.70093L15.4907 0.0975331C15.021 -0.0967652 14.4773 0.00441513 14.1156 0.354856L11.6162 2.77683C11.6153 2.77683 11.6153 2.77774 11.6143 2.77865C11.5896 2.80261 11.5667 2.82748 11.5447 2.85314C11.5392 2.85939 11.5337 2.86552 11.5282 2.87176C11.5062 2.89754 11.4861 2.92411 11.4669 2.9516C11.4633 2.95693 11.4587 2.96318 11.455 2.96931C11.4394 2.99236 11.4238 3.01632 11.4101 3.04028C11.4055 3.04823 11.4009 3.0563 11.3964 3.06424C11.3817 3.09173 11.368 3.11921 11.3551 3.1476C11.3496 3.15827 11.345 3.16895 11.3414 3.17951C11.3294 3.20699 11.3185 3.23538 11.3094 3.26286C11.3067 3.27262 11.3039 3.28239 11.3012 3.29216C11.293 3.31793 11.2856 3.34451 11.2801 3.37108C11.2774 3.37994 11.2755 3.3897 11.2737 3.39947C11.2664 3.43138 11.2617 3.46511 11.2581 3.49792C11.2571 3.50587 11.2562 3.51394 11.2554 3.52279C11.2517 3.55822 11.2499 3.59377 11.2499 3.63011C11.2499 3.63101 11.2499 3.63192 11.2499 3.63363V10.9003C11.2499 11.5693 11.8092 12.1122 12.4996 12.1122C13.1898 12.1122 13.7493 11.5693 13.7493 10.9003V5.54186L26.5658 11.3865L32.4993 23.2895V26.6464H21.0451H12.4977H3.74996H1.24971C0.559347 26.6464 0 27.1894 0 27.8583C0 28.5273 0.559347 29.0702 1.24971 29.0702H2.50024V33.9444C2.50024 34.6134 3.05959 35.1562 3.74996 35.1562H7.62355C8.20223 37.9205 10.7244 40 13.7475 40C16.7926 40 19.3276 37.8885 19.8834 35.0958H37.4962H39.9975H42.6122C43.1652 37.8885 45.7011 40 48.7461 40C51.7912 40 54.3273 37.8885 54.8821 35.0958H59.9742L60 20.5908ZM53.4521 18.168H45.0001V12.1176L49.812 12.1131L53.4521 18.168ZM42.4988 12.1203V18.168H40.0085L40.0121 12.122L42.4988 12.1203ZM30.1593 13.0251L32.4994 14.0916V17.7201L30.1593 13.0251ZM34.2809 12.2276L14.6411 3.27092L15.2857 2.64726L37.4963 11.8515V26.6466H34.9987V13.3232C34.9987 12.8539 34.7204 12.4271 34.2809 12.2276ZM7.62355 32.7325H4.99967V29.0702H10.0396C8.8183 29.9433 7.93668 31.2385 7.62355 32.7325ZM13.7475 37.5781C11.6803 37.5781 9.99758 35.9476 9.99758 33.9444C9.99758 31.9411 11.6803 30.3105 13.7475 30.3105C15.8157 30.3105 17.4976 31.9411 17.4976 33.9444C17.4975 35.9476 15.8157 37.5781 13.7475 37.5781ZM19.8586 32.6722C19.5345 31.203 18.6612 29.9326 17.4554 29.0702H21.0452H33.75H37.4963V32.6722H19.8586ZM48.7463 37.5781C46.679 37.5781 44.9964 35.9476 44.9964 33.9444C44.9964 31.9411 46.679 30.3105 48.7463 30.3105C50.8154 30.3105 52.4963 31.9411 52.4963 33.9444C52.4963 35.9476 50.8154 37.5781 48.7463 37.5781ZM54.8584 32.6722C54.2542 29.9398 51.7493 27.8885 48.7463 27.8885C45.7453 27.8885 43.2386 29.9396 42.6361 32.6722H39.9975L40.0066 20.5908H55.5321L57.4986 21.8772L57.4913 25.4046H56.2482C55.5578 25.4046 54.9975 25.9475 54.9975 26.6182C54.9975 27.2853 55.5578 27.8283 56.2482 27.8283H57.4877L57.4785 32.6722H54.8584Z" fill="white"/>
<path d="M48.7461 32.7325C48.0558 32.7325 47.4974 33.2755 47.4974 33.9444C47.4974 34.6134 48.056 35.1562 48.7461 35.1562C49.4365 35.1562 49.9967 34.6134 49.9967 33.9444C49.9967 33.2755 49.4363 32.7325 48.7461 32.7325Z" fill="white"/>
<path d="M13.7474 32.7325C13.0571 32.7325 12.4977 33.2755 12.4977 33.9444C12.4977 34.6134 13.057 35.1562 13.7474 35.1562C14.4378 35.1562 14.9971 34.6134 14.9971 33.9444C14.9971 33.2755 14.4378 32.7325 13.7474 32.7325Z" fill="white"/>
<path d="M6.26132 19.4046C6.25769 19.5625 6.25769 20.9722 7.30501 22.0094C7.76826 22.4671 8.61144 23.0137 9.99944 23.0137C11.3764 23.0137 12.2168 22.4672 12.6792 22.0094C13.71 20.9909 13.7403 19.6016 13.7385 19.3727V14.535C13.7385 13.866 13.1791 13.324 12.4888 13.324C11.7984 13.324 11.2391 13.866 11.2391 14.535L11.2381 19.3797C11.2381 19.3957 11.2381 19.3895 11.2381 19.3992C11.2363 19.5128 11.1988 19.8375 11.0496 20.1055C10.9159 20.3459 10.6861 20.5916 9.99956 20.5916C9.30368 20.5916 9.07118 20.3405 8.94579 20.1214C8.7966 19.8596 8.7618 19.5412 8.76086 19.44V19.456H8.75699C8.75887 19.4311 8.76063 19.4055 8.76063 19.3797C8.76063 18.7107 8.20128 18.1687 7.51091 18.1687C6.82067 18.1687 6.2612 18.7107 6.2612 19.3797C6.2612 19.3886 6.26214 19.3965 6.26214 19.4046H6.26132Z" fill="white"/>
</g>
</symbol><symbol id="icon-tree-leaf" viewBox="0 0 10 18">
<path d="M10 9.56184C10 4.40092 5.5661 0.317377 5.37733 0.146153C5.16269 -0.0486795 4.83776 -0.0487559 4.62298 0.146153C4.4342 0.317453 9.20285e-09 4.40092 9.20285e-09 9.56184C9.20285e-09 10.8082 0.531272 12.0802 1.45759 13.052C2.28695 13.9221 3.32793 14.4563 4.43473 14.593V17.427C4.43473 17.7434 4.68781 18 5.00015 18C5.31249 18 5.56557 17.7434 5.56557 17.427V14.593C6.6723 14.4563 7.71313 13.922 8.54241 13.052C9.46873 12.0802 10 10.8081 10 9.56184ZM2.1134 5.51513L4.43473 7.86794V10.2624L1.46256 7.24983C1.63219 6.64279 1.8567 6.06165 2.1134 5.51513ZM5.56557 10.2632V7.86848L7.8869 5.51566C8.14368 6.06249 8.36819 6.64386 8.53782 7.2512L5.56557 10.2632ZM7.33218 4.45952C7.32321 4.46762 7.31394 4.47541 7.30534 4.4842L5.56557 6.24762V1.99706C6.08463 2.59822 6.74105 3.44348 7.33218 4.45952ZM4.43473 1.99699V6.24701L2.69549 4.4842C2.68659 4.47526 2.67732 4.46731 2.66804 4.45906C3.2594 3.4431 3.91567 2.59799 4.43473 1.99699ZM1.13085 9.56184C1.13085 9.23567 1.15294 8.91362 1.19154 8.59608L4.4348 11.8833V13.4365C2.50995 13.1228 1.13085 11.2515 1.13085 9.56184ZM5.56557 13.4364V11.8839L8.80854 8.59746C8.84714 8.91454 8.86923 9.23612 8.86923 9.56184C8.86915 11.2515 7.4902 13.1228 5.56557 13.4364Z" fill="white"/>
</symbol><symbol id="icon-truck" viewBox="0 0 56 31">
<g opacity="0.9">
<path d="M56 16.6539L53.6655 11.8888L48.9983 2.38283L37.3329 2.39333V1.19096C37.3329 0.787864 37.1329 0.411683 36.8014 0.192654C36.4699 -0.0272683 36.0528 -0.061222 35.6922 0.102743L25.418 4.76501H1.16688C0.79861 4.76501 0.450794 4.94305 0.231167 5.24573C0.0106646 5.54764 -0.0568205 5.93767 0.049165 6.29899L3.47144 17.948L2.34946 24.8482C2.29302 25.1938 2.38872 25.5463 2.6101 25.8133C2.83224 26.0804 3.15698 26.234 3.50053 26.234H4.78384C5.32394 28.953 7.67793 31 10.4995 31C12.4085 31 14.102 30.0629 15.1667 28.6179C16.2306 30.063 17.9241 31 19.8331 31C22.6546 31 25.0087 28.953 25.5488 26.234H34.9985H37.4491C37.9909 28.953 40.3442 31 43.1657 31C45.9872 31 48.3421 28.953 48.8822 26.234H55.9762L56 16.6539ZM51.056 11.8888H41.9831V4.77115L47.5577 4.7668L51.056 11.8888ZM39.6503 4.77372V11.8888H37.3415L37.3449 4.77551L39.6503 4.77372ZM2.73479 7.14808H25.6657C25.8289 7.14808 25.9903 7.11323 26.1399 7.0451L34.9982 3.02417V16.6783H5.53493L2.73479 7.14808ZM10.4995 28.6161C8.57012 28.6161 7.00035 27.014 7.00035 25.0438C7.00035 23.0717 8.57012 21.4697 10.4995 21.4697C12.4298 21.4697 13.9995 23.0717 13.9995 25.0438C13.9995 27.014 12.4298 28.6161 10.4995 28.6161ZM19.8331 28.6161C17.9029 28.6161 16.3331 27.014 16.3331 25.0438C16.3331 23.0717 17.9027 21.4697 19.8331 21.4697C21.7625 21.4697 23.3331 23.0717 23.3331 25.0438C23.3331 27.014 21.7625 28.6161 19.8331 28.6161ZM25.5487 23.8517C25.0086 21.1328 22.6546 19.0857 19.833 19.0857C17.9241 19.0857 16.2305 20.0229 15.1666 21.4696C14.1019 20.0229 12.4083 19.0857 10.4994 19.0857C7.9727 19.0857 5.82117 20.7279 5.01102 23.0227L5.65535 19.0612H34.9982V23.8517H25.5487ZM43.1656 28.6161C41.2362 28.6161 39.6657 27.014 39.6657 25.0438C39.6657 23.0717 41.2362 21.4697 43.1656 21.4697C45.095 21.4697 46.6655 23.0717 46.6655 25.0438C46.6655 27.014 45.095 28.6161 43.1656 28.6161ZM53.6484 23.8517H48.8821C48.342 21.1328 45.987 19.0857 43.1656 19.0857C40.3441 19.0857 37.9891 21.1328 37.449 23.8517H37.3345L37.3397 14.2708H52.2249L53.6655 17.2131L53.6484 23.8517Z" fill="white"/>
<path d="M43.1652 23.852C42.5209 23.852 41.998 24.3844 41.998 25.044C41.998 25.7002 42.5209 26.2342 43.1652 26.2342C43.8095 26.2342 44.3325 25.7002 44.3325 25.044C44.3325 24.3844 43.8095 23.852 43.1652 23.852Z" fill="white"/>
<path d="M10.4994 23.852C9.85506 23.852 9.33301 24.3844 9.33301 25.044C9.33301 25.7002 9.85506 26.2342 10.4994 26.2342C11.1437 26.2342 11.6667 25.7002 11.6667 25.044C11.6667 24.3844 11.1437 23.852 10.4994 23.852Z" fill="white"/>
<path d="M19.833 23.852C19.1887 23.852 18.6658 24.3844 18.6658 25.044C18.6658 25.7002 19.1887 26.2342 19.833 26.2342C20.4774 26.2342 20.9994 25.7002 20.9994 25.044C20.9993 24.3844 20.4773 23.852 19.833 23.852Z" fill="white"/>
<path d="M9.33289 13.1051H30.3328C30.9771 13.1051 31.4999 12.572 31.4999 11.914C31.4999 11.256 30.9771 10.7229 30.3328 10.7229H9.33289C8.68856 10.7229 8.1665 11.256 8.1665 11.914C8.1665 12.572 8.68867 13.1051 9.33289 13.1051Z" fill="white"/>
</g>
</symbol><symbol id="icon-umbrella" viewBox="0 0 43 48">
<path d="M23 3.33V2C23 1.46957 22.7893 0.960859 22.4142 0.585786C22.0391 0.210714 21.5304 0 21 0C20.4696 0 19.9609 0.210714 19.5858 0.585786C19.2107 0.960859 19 1.46957 19 2V3.33C13.7995 3.84114 8.97478 6.26742 5.46338 10.1374C1.95198 14.0073 0.00471991 19.0445 3.40617e-06 24.27C-0.000589996 24.5916 0.0763591 24.9085 0.224327 25.194C0.372295 25.4795 0.586919 25.7251 0.850003 25.91C1.11333 26.094 1.41712 26.2119 1.73566 26.2537C2.0542 26.2955 2.37812 26.2599 2.68 26.15C7.92278 24.2009 13.666 24.0566 19 25.74V41.91C19 42.4643 18.7798 42.9959 18.3879 43.3879C17.9959 43.7798 17.4643 44 16.91 44C16.3557 44 15.8241 43.7798 15.4322 43.3879C15.0402 42.9959 14.82 42.4643 14.82 41.91C14.82 41.3796 14.6093 40.8709 14.2342 40.4958C13.8591 40.1207 13.3504 39.91 12.82 39.91C12.2896 39.91 11.7809 40.1207 11.4058 40.4958C11.0307 40.8709 10.82 41.3796 10.82 41.91C10.82 42.7098 10.9775 43.5017 11.2836 44.2405C11.5896 44.9794 12.0382 45.6508 12.6037 46.2163C13.1692 46.7818 13.8406 47.2304 14.5795 47.5364C15.3183 47.8425 16.1103 48 16.91 48C17.7098 48 18.5017 47.8425 19.2405 47.5364C19.9794 47.2304 20.6508 46.7818 21.2163 46.2163C21.7818 45.6508 22.2304 44.9794 22.5364 44.2405C22.8425 43.5017 23 42.7098 23 41.91V25.74C28.3463 24.0474 34.1052 24.1918 39.36 26.15C39.6619 26.2599 39.9858 26.2955 40.3043 26.2537C40.6229 26.2119 40.9267 26.094 41.19 25.91C41.4531 25.7251 41.6677 25.4795 41.8157 25.194C41.9636 24.9085 42.0406 24.5916 42.04 24.27C42.0343 19.0382 40.0815 13.9958 36.5618 10.1249C33.0421 6.25404 28.2077 3.83181 23 3.33ZM21 22.17C15.5812 20.3176 9.74068 20.0814 4.19 21.49C4.78959 17.4591 6.81727 13.7776 9.90364 11.1164C12.99 8.45513 16.9297 6.99115 21.005 6.99115C25.0803 6.99115 29.02 8.45513 32.1064 11.1164C35.1927 13.7776 37.2204 17.4591 37.82 21.49C32.266 20.0811 26.4222 20.3174 21 22.17Z" fill="white"/>
</symbol><symbol id="icon-unvalid" viewBox="0 0 11 11">
<path fill-rule="evenodd" clip-rule="evenodd" d="M5.00121 5.70902L9.29273 10.0012L9.99989 9.29414L5.70826 5.00186L10.0024 0.707053L9.29525 0L5.00121 4.2947L0.707161 0L0 0.707053L4.29415 5.00186L0.00252664 9.29414L0.709687 10.0012L5.00121 5.70902Z" fill="#D9453D"/>
</symbol><symbol id="icon-update" viewBox="0 0 14 14">
<path opacity="0.25" d="M14 5.54128H8.72425L10.8587 3.3481C8.73592 1.24436 5.2991 1.16659 3.17636 3.27033C1.05362 5.37407 1.05362 8.7805 3.17636 10.8842C5.2991 12.988 8.73592 12.988 10.8587 10.8842C11.9161 9.83432 12.4449 8.61718 12.441 7.07729H14C14 8.61718 13.3157 10.6159 11.9472 11.9731C9.218 14.6756 4.78591 14.6756 2.05667 11.9731C-0.672564 9.27047 -0.692003 4.88799 2.03723 2.1854C4.76258 -0.517186 9.14802 -0.517186 11.8734 2.1854L14 0V5.54128Z" fill="#383838"/>
</symbol><symbol id="icon-valid" viewBox="0 0 14 10">
<path d="M4.17 7.89L1.06 4.78L5.72205e-08 5.84L4.17 10L13.12 1.05L12.06 0L4.17 7.89Z" fill="#64DD17"/>
</symbol></svg>