<svg width="132" height="31" viewBox="0 0 132 31" fill="none" xmlns="http://www.w3.org/2000/svg">
<g clip-path="url(#clip0)">
<path d="M18.9265 30.9535C16.7404 30.9493 14.5789 30.5015 12.5778 29.6384C10.5767 28.7752 8.77928 27.5153 7.29852 25.9379C7.21612 25.8605 7.15076 25.7674 7.1065 25.6643C7.06223 25.5611 7.04 25.4502 7.04117 25.3383C7.04235 25.2264 7.0669 25.116 7.11332 25.0138C7.15974 24.9116 7.22704 24.8198 7.31105 24.7441C7.39507 24.6684 7.49401 24.6105 7.60178 24.5738C7.70954 24.5371 7.82383 24.5225 7.93757 24.5308C8.05132 24.5392 8.16212 24.5703 8.2631 24.6224C8.36409 24.6744 8.45313 24.7462 8.52471 24.8333C10.4002 26.8385 12.8367 28.2571 15.5295 28.9117C18.2223 29.5663 21.0521 29.428 23.6652 28.5139C26.2783 27.5998 28.5589 25.9506 30.2218 23.7724C31.8847 21.5941 32.8563 18.9834 33.0151 16.2666C33.0281 16.0509 33.1274 15.8491 33.2915 15.705C33.4555 15.5609 33.6711 15.4863 33.891 15.4975C34.0006 15.5037 34.1079 15.5311 34.2066 15.5782C34.3054 15.6252 34.3938 15.6909 34.4666 15.7714C34.5395 15.852 34.5954 15.9459 34.6312 16.0477C34.6669 16.1495 34.6819 16.2573 34.6751 16.3648C34.4431 20.3083 32.683 24.0157 29.7552 26.7278C26.8275 29.44 22.9535 30.9517 18.9265 30.9535ZM4.88785 20.5868C5.09906 20.5226 5.27569 20.3789 5.37892 20.1871C5.48215 19.9954 5.50354 19.7712 5.43839 19.564C4.54451 16.707 4.61713 13.643 5.6454 10.8298C6.67367 8.01662 8.60237 5.60537 11.1433 3.95635C13.6842 2.30734 16.7009 1.50912 19.7426 1.68097C22.7842 1.85283 25.6875 2.98553 28.0186 4.9098C28.1879 5.04977 28.4069 5.11806 28.6274 5.09964C28.848 5.08123 29.0521 4.97763 29.1948 4.81162C29.3375 4.64561 29.4071 4.4308 29.3883 4.21444C29.3695 3.99809 29.2639 3.7979 29.0947 3.65794C26.4879 1.50564 23.241 0.238663 19.8394 0.0464004C16.4377 -0.145863 13.064 0.746912 10.2225 2.59127C7.38093 4.43564 5.22424 7.13252 4.07475 10.2788C2.92527 13.4251 2.84473 16.8518 3.84517 20.0467C3.91053 20.2539 4.05706 20.4272 4.25257 20.5284C4.44808 20.6297 4.67658 20.6507 4.88785 20.5868ZM0.783871 28.2861C8.78795 21.5959 18.3569 16.9548 28.6359 14.7774C28.6725 14.7693 28.7106 14.771 28.7463 14.7823C28.782 14.7937 28.8139 14.8143 28.8387 14.8419C28.8635 14.8695 28.8802 14.9032 28.887 14.9394C28.8939 14.9756 28.8907 15.0129 28.8778 15.0475L27.4597 18.4676C27.4365 18.5217 27.4324 18.5819 27.4482 18.6385C27.464 18.6952 27.4988 18.7449 27.5469 18.7799C27.595 18.8148 27.6537 18.8329 27.7135 18.8311C27.7734 18.8294 27.8309 18.808 27.8768 18.7703L38.9626 9.81908C39.0324 9.76038 39.0848 9.6842 39.114 9.59865C39.1432 9.5131 39.1483 9.42137 39.1286 9.33323C39.1089 9.2451 39.0652 9.16384 39.0022 9.09811C38.9392 9.03238 38.8592 8.98463 38.7707 8.95995L24.8489 5.278C24.7909 5.26372 24.7297 5.26895 24.6751 5.29285C24.6205 5.31675 24.5757 5.35795 24.5478 5.40983C24.5199 5.46171 24.5106 5.52127 24.5213 5.57896C24.532 5.63666 24.5622 5.68915 24.607 5.72802L27.8268 8.35448C27.8539 8.37648 27.8746 8.40511 27.8868 8.43746C27.899 8.46981 27.9023 8.50475 27.8964 8.53876C27.8905 8.57277 27.8755 8.60466 27.8531 8.6312C27.8306 8.65774 27.8014 8.678 27.7684 8.68994C25.2159 9.58998 8.5831 15.7838 0.0831917 27.6725C0.000231113 27.7636 -0.042421 27.8833 -0.0353815 28.0053C-0.0283421 28.1273 0.0278122 28.2416 0.120728 28.323C0.213644 28.4043 0.33571 28.4462 0.460074 28.4393C0.584437 28.4324 0.700911 28.3773 0.783871 28.2861Z" fill="white"/>
</g>
<path d="M51.9184 6.10202C52.9322 6.10202 53.8179 6.31369 54.5754 6.73703C55.333 7.14922 55.9123 7.73409 56.3133 8.49164C56.7255 9.24919 56.9316 10.1126 56.9316 11.0818C56.9316 12.3964 56.5918 13.5995 55.9123 14.6913C55.2327 15.7719 54.3247 16.6297 53.1884 17.2647C52.0521 17.8886 50.8378 18.2005 49.5455 18.2005C48.5651 18.2005 47.6851 18.0279 46.9052 17.6825C46.1365 17.326 45.5238 16.8024 45.0671 16.1117L47.1057 14.5075C47.7408 15.4321 48.6543 15.8945 49.8463 15.8945C50.7375 15.8945 51.5452 15.6382 52.2693 15.1258C52.9935 14.6133 53.5171 13.9449 53.8401 13.1205H49.0108L49.4118 11.0484H54.1409C54.0741 10.2351 53.79 9.59455 53.2887 9.12665C52.7985 8.64761 52.1468 8.40809 51.3335 8.40809C50.1415 8.40809 49.0498 8.87042 48.0583 9.79507L46.6546 8.19085C47.323 7.52243 48.114 7.00997 49.0275 6.65347C49.941 6.28584 50.9046 6.10202 51.9184 6.10202ZM66.0526 12.0343L68.7932 18H65.8855L63.78 13.2709H61.7914L60.8389 18H58.1318L60.4713 6.30255H63.1784L62.2259 11.0317H64.0139L68.0412 6.30255H71.0825L66.0526 12.0343ZM76.4946 18.2005C75.3248 18.2005 74.2999 17.9889 73.4198 17.5655C72.5508 17.1422 71.8824 16.5462 71.4145 15.7775C70.9466 15.0088 70.7127 14.1231 70.7127 13.1205C70.7127 11.7948 71.0135 10.6028 71.615 9.54441C72.2278 8.47493 73.0856 7.63383 74.1885 7.02111C75.2914 6.40838 76.5558 6.10202 77.9818 6.10202C79.029 6.10202 79.9537 6.28027 80.7558 6.63676C81.5579 6.99326 82.165 7.50572 82.5772 8.17414L80.6221 9.77836C79.9982 8.86485 79.0568 8.40809 77.798 8.40809C76.9402 8.40809 76.1826 8.60862 75.5253 9.00967C74.868 9.41073 74.3556 9.95661 73.988 10.6473C73.6315 11.338 73.4532 12.1067 73.4532 12.9534C73.4532 13.8558 73.7373 14.5743 74.3055 15.1091C74.8848 15.6327 75.6924 15.8945 76.7285 15.8945C77.9651 15.8945 79.0011 15.4433 79.8367 14.5409L81.4409 16.1785C80.2823 17.5265 78.6335 18.2005 76.4946 18.2005ZM96.0997 6.30255L93.7602 18H91.0865L92.9414 8.50835H87.6608L85.7892 18H83.1155L85.455 6.30255H96.0997ZM101.589 8.47493L101.088 11.015H106.519L106.101 13.1205H100.654L100.119 15.8276H106.502L106.051 18H96.9941L99.3336 6.30255H108.173L107.722 8.47493H101.589ZM115.574 6.30255C117.033 6.30255 118.158 6.62562 118.949 7.27177C119.751 7.90677 120.153 8.798 120.153 9.94547C120.153 10.9258 119.919 11.7836 119.451 12.5189C118.994 13.243 118.337 13.8001 117.479 14.19C116.632 14.5799 115.63 14.7748 114.471 14.7748H111.864L111.229 18H108.505L110.845 6.30255H115.574ZM114.588 12.569C115.49 12.569 116.187 12.3629 116.677 11.9507C117.167 11.5386 117.412 10.9481 117.412 10.1794C117.412 9.6224 117.223 9.20463 116.844 8.92612C116.476 8.64761 115.941 8.50835 115.24 8.50835H113.117L112.299 12.569H114.588ZM131.501 8.50835H127.725L125.853 18H123.179L125.051 8.50835H121.358L121.792 6.30255H131.936L131.501 8.50835Z" fill="white"/>
<path d="M93.3164 23.2766V27.9556H92.4608V24.0119H90.616L90.5759 25.1816C90.5536 25.8367 90.5001 26.3692 90.4155 26.7791C90.3308 27.1846 90.1949 27.4944 90.0077 27.7082C89.8206 27.9177 89.5621 28.0224 89.2323 28.0224C89.1165 28.0224 88.9583 28.0001 88.7578 27.9556L88.8179 27.2002C88.8759 27.2181 88.9427 27.227 89.0185 27.227C89.2903 27.227 89.4819 27.0666 89.5933 26.7457C89.7092 26.4204 89.7805 25.9102 89.8072 25.215L89.874 23.2766H93.3164ZM97.0658 28.0224C96.589 28.0224 96.1589 27.9199 95.7757 27.7149C95.3925 27.5055 95.0917 27.2181 94.8733 26.8527C94.655 26.4828 94.5458 26.0706 94.5458 25.6161C94.5458 25.1615 94.655 24.7516 94.8733 24.3862C95.0917 24.0163 95.3925 23.7289 95.7757 23.5239C96.1589 23.3145 96.589 23.2097 97.0658 23.2097C97.5426 23.2097 97.9726 23.3145 98.3558 23.5239C98.7391 23.7289 99.0399 24.0141 99.2582 24.3795C99.4766 24.7449 99.5857 25.1571 99.5857 25.6161C99.5857 26.0751 99.4766 26.4873 99.2582 26.8527C99.0399 27.2181 98.7391 27.5055 98.3558 27.7149C97.9726 27.9199 97.5426 28.0224 97.0658 28.0224ZM97.0658 27.2604C97.3777 27.2604 97.6584 27.1913 97.908 27.0532C98.1575 26.9106 98.3536 26.7145 98.4962 26.465C98.6388 26.211 98.7101 25.928 98.7101 25.6161C98.7101 25.3041 98.6388 25.0234 98.4962 24.7739C98.3536 24.5199 98.1575 24.3238 97.908 24.1856C97.6584 24.043 97.3777 23.9717 97.0658 23.9717C96.7538 23.9717 96.4731 24.043 96.2236 24.1856C95.974 24.3238 95.7779 24.5199 95.6353 24.7739C95.4927 25.0234 95.4214 25.3041 95.4214 25.6161C95.4214 25.928 95.4927 26.211 95.6353 26.465C95.7779 26.7145 95.974 26.9106 96.2236 27.0532C96.4731 27.1913 96.7538 27.2604 97.0658 27.2604ZM103.989 24.0119H101.669L101.676 27.9556H100.82V23.2766H103.996L103.989 24.0119ZM104.998 23.2766H105.853V26.5987L108.367 23.2766H109.176V27.9556H108.32V24.6402L105.807 27.9556H104.998V23.2766ZM112.907 28.0224C112.435 28.0224 112.007 27.9199 111.624 27.7149C111.245 27.5055 110.946 27.2181 110.728 26.8527C110.514 26.4873 110.407 26.0751 110.407 25.6161C110.407 25.1571 110.516 24.7449 110.735 24.3795C110.953 24.0141 111.252 23.7289 111.63 23.5239C112.014 23.3145 112.441 23.2097 112.914 23.2097C113.297 23.2097 113.647 23.2766 113.963 23.4103C114.28 23.544 114.547 23.7378 114.765 23.9918L114.204 24.5199C113.865 24.1545 113.449 23.9717 112.954 23.9717C112.633 23.9717 112.346 24.043 112.092 24.1856C111.838 24.3238 111.639 24.5176 111.497 24.7672C111.354 25.0167 111.283 25.2997 111.283 25.6161C111.283 25.9325 111.354 26.2154 111.497 26.465C111.639 26.7145 111.838 26.9106 112.092 27.0532C112.346 27.1913 112.633 27.2604 112.954 27.2604C113.449 27.2604 113.865 27.0755 114.204 26.7056L114.765 27.2404C114.547 27.4944 114.277 27.6882 113.957 27.8219C113.64 27.9556 113.29 28.0224 112.907 28.0224ZM119.183 24.0119H117.632V27.9556H116.77V24.0119H115.226V23.2766H119.183V24.0119ZM120.206 23.2766H121.062V26.5987L123.575 23.2766H124.384V27.9556H123.528V24.6402L121.015 27.9556H120.206V23.2766ZM127.688 25.9837H126.819V27.9556H125.963V23.2766H126.819V25.2351H127.715L129.058 23.2766H129.981L128.383 25.5425L130.041 27.9556H129.058L127.688 25.9837Z" fill="white"/>
<defs>
<clipPath id="clip0">
<rect width="39.1463" height="30.953" fill="white"/>
</clipPath>
</defs>
</svg>
